<?xml version="1.0" standalone="no"?>
<!DOCTYPE svg PUBLIC "-//W3C//DTD SVG 20010904//EN"
 "http://www.w3.org/TR/2001/REC-SVG-20010904/DTD/svg10.dtd">
<svg version="1.0" xmlns="http://www.w3.org/2000/svg"
 width="544.000000pt" height="544.000000pt" viewBox="0 0 544.000000 544.000000"
 preserveAspectRatio="xMidYMid meet">
<metadata>
Created by potrace 1.11, written by Peter Selinger 2001-2013
</metadata>
<g transform="translate(0.000000,544.000000) scale(0.100000,-0.100000)"
fill="#000000" stroke="none">
<path d="M3295 5098 c-10 -6 -31 -12 -45 -14 -35 -3 -54 -8 -60 -16 -3 -3 -25
-9 -50 -13 -25 -4 -51 -11 -57 -17 -7 -6 -13 -8 -13 -4 0 3 -16 -1 -37 -9 -20
-8 -38 -13 -40 -11 -3 2 -16 -2 -30 -9 -14 -7 -32 -11 -39 -8 -8 3 -14 1 -14
-5 0 -6 -9 -8 -20 -5 -11 3 -20 1 -20 -3 0 -8 -26 -13 -82 -17 -10 -1 -18 -5
-18 -10 0 -5 -7 -7 -15 -4 -8 4 -17 2 -21 -4 -3 -6 -12 -8 -20 -5 -8 3 -14 2
-14 -3 0 -5 -15 -11 -32 -15 -34 -6 -61 -13 -65 -16 -2 -2 -12 -4 -23 -5 -11
-1 -22 -4 -25 -5 -3 -1 -9 -4 -15 -5 -5 -1 -11 -3 -12 -5 -4 -3 -55 -14 -102
-23 -6 -1 -13 -5 -16 -9 -3 -3 -18 -8 -35 -11 -51 -8 -169 -38 -185 -46 -8 -4
-23 -7 -32 -5 -10 1 -18 -1 -18 -5 0 -4 -6 -8 -12 -9 -15 -1 -53 -10 -53 -12
0 -1 -11 -4 -25 -7 -31 -6 -35 -7 -90 -22 -25 -8 -52 -15 -60 -16 -8 -2 -15
-4 -15 -5 0 -1 -7 -3 -15 -5 -8 -2 -26 -7 -40 -10 -14 -4 -31 -7 -37 -7 -7 -1
-13 -4 -13 -8 0 -3 -8 -6 -17 -7 -44 -3 -63 -8 -63 -16 0 -4 -4 -5 -10 -2 -5
3 -16 3 -22 -1 -7 -5 -19 -9 -28 -10 -8 -2 -40 -10 -70 -19 -30 -8 -68 -18
-84 -21 -16 -2 -37 -9 -46 -14 -10 -5 -20 -7 -23 -4 -3 3 -12 2 -19 -2 -7 -5
-20 -10 -28 -12 -29 -6 -35 -8 -47 -15 -7 -5 -13 -6 -13 -3 0 3 -18 -1 -40 -9
-22 -8 -40 -12 -40 -10 0 2 -27 -5 -59 -15 -33 -10 -62 -15 -65 -12 -3 3 -6 0
-6 -7 0 -7 -4 -10 -8 -7 -5 3 -26 0 -48 -6 -21 -7 -42 -13 -46 -14 -5 -1 -10
-3 -13 -4 -9 -4 -19 -7 -62 -15 -24 -4 -43 -12 -43 -17 0 -5 -5 -6 -11 -2 -12
7 -109 -91 -109 -112 0 -7 -6 -17 -13 -21 -33 -19 -68 -119 -49 -138 3 -3 7
-15 9 -27 2 -12 8 -27 14 -34 6 -7 8 -18 5 -23 -4 -5 -2 -12 3 -16 5 -3 8 -14
6 -25 -2 -11 -1 -20 3 -20 8 0 38 -90 34 -102 -1 -5 3 -8 9 -8 5 0 8 -4 5 -9
-3 -5 7 -45 24 -90 16 -44 27 -81 25 -81 -2 0 4 -20 15 -45 11 -25 17 -45 14
-45 -2 0 2 -13 11 -30 9 -16 13 -30 9 -30 -4 0 -1 -7 6 -15 7 -8 10 -15 6 -15
-3 0 6 -30 20 -67 14 -38 25 -69 24 -70 0 -2 0 -4 1 -5 0 -2 3 -14 5 -28 3
-14 9 -26 14 -28 5 -2 6 -10 3 -18 -3 -8 0 -14 7 -14 6 0 9 -4 6 -9 -6 -9 6
-54 29 -106 7 -16 16 -46 20 -65 4 -19 11 -39 15 -45 5 -5 9 -13 9 -17 1 -5 1
-9 2 -10 0 -2 2 -14 5 -27 2 -13 12 -39 21 -58 9 -20 16 -41 16 -49 0 -8 3
-14 7 -14 3 0 6 -8 7 -17 2 -24 7 -46 14 -58 4 -5 10 -23 14 -40 12 -44 12
-45 15 -50 1 -3 4 -9 5 -15 1 -5 3 -11 5 -12 1 -2 3 -10 5 -18 2 -8 17 -57 34
-108 17 -51 31 -99 31 -107 0 -8 5 -15 11 -15 5 0 8 -4 5 -8 -3 -5 1 -20 9
-35 7 -14 11 -27 9 -29 -2 -2 8 -38 23 -79 14 -40 26 -81 28 -89 1 -8 9 -32
18 -54 9 -21 15 -41 12 -46 -2 -4 2 -16 10 -26 8 -10 15 -28 15 -40 0 -11 3
-24 7 -28 4 -4 9 -19 11 -34 2 -14 7 -31 12 -37 5 -6 11 -22 14 -37 2 -14 9
-36 16 -47 6 -12 8 -21 4 -21 -3 0 -1 -7 6 -15 6 -8 9 -19 5 -25 -3 -5 -1 -10
5 -10 7 0 10 -6 7 -14 -3 -7 -1 -18 3 -22 5 -5 11 -18 13 -29 1 -11 6 -26 10
-32 9 -14 16 -42 22 -81 2 -13 7 -28 12 -35 5 -7 16 -32 23 -57 7 -25 17 -50
22 -56 4 -6 5 -14 2 -17 -3 -3 -2 -12 2 -19 5 -7 9 -16 10 -20 1 -5 2 -9 4
-10 1 -2 3 -10 5 -18 2 -12 46 -153 71 -230 3 -8 6 -17 6 -20 0 -3 5 -16 10
-30 5 -14 12 -34 14 -44 2 -11 7 -22 11 -25 5 -3 10 -22 12 -41 2 -19 6 -37
10 -40 5 -3 12 -18 16 -35 4 -16 9 -34 11 -40 2 -5 14 -45 27 -88 13 -43 30
-83 38 -88 10 -6 10 -9 1 -9 -10 0 -9 -7 3 -30 8 -16 15 -37 15 -48 0 -10 4
-22 9 -27 9 -11 37 -106 33 -117 -1 -5 3 -8 8 -8 6 0 10 -6 10 -13 0 -7 12
-48 26 -92 14 -44 27 -87 29 -95 8 -40 48 -89 83 -103 32 -13 42 -13 72 -1 33
13 80 24 108 26 6 1 12 5 12 10 0 4 3 7 8 7 4 -1 9 0 12 1 3 1 12 3 20 5 8 1
35 9 60 16 25 7 48 12 53 11 4 -1 7 2 7 6 0 5 6 9 13 10 34 4 55 10 82 22 17
7 40 13 53 13 12 0 22 4 22 9 0 6 7 8 15 5 8 -4 17 -2 20 2 3 5 29 15 57 21
29 7 58 15 63 19 10 5 23 9 55 15 16 3 40 12 78 27 13 5 28 7 33 4 5 -4 9 -1
9 5 0 6 5 8 10 5 6 -3 10 -2 10 4 0 6 7 8 15 5 8 -4 15 -2 15 3 0 5 8 9 18 10
26 2 59 10 81 23 12 6 21 8 21 4 0 -3 6 -2 13 4 6 6 14 10 17 10 3 0 25 6 50
13 25 7 48 12 53 11 4 -1 7 2 7 7 0 5 8 8 18 6 9 -1 22 1 27 4 14 9 74 29 105
35 45 8 55 11 61 19 4 5 18 10 33 10 14 1 26 4 26 7 0 3 11 7 24 8 13 1 37 7
52 13 33 14 40 16 74 23 14 3 26 10 28 15 2 6 9 8 16 5 6 -2 29 2 49 11 20 8
37 12 37 9 0 -4 7 -1 15 6 8 7 15 9 15 5 0 -4 6 -2 13 4 8 6 17 8 20 4 4 -3 7
-1 7 6 0 7 4 9 10 6 5 -3 22 1 38 9 16 8 32 13 34 10 3 -2 18 1 34 7 16 7 34
13 39 15 29 8 61 16 73 16 6 1 12 4 12 8 0 3 24 12 53 19 71 17 151 43 157 50
3 3 14 7 25 8 38 5 54 9 61 16 4 4 16 7 26 7 10 0 26 4 36 9 18 11 63 21 73
18 3 -1 12 3 20 9 18 15 64 26 114 29 80 4 135 25 177 68 38 38 56 76 51 112
-2 17 -4 36 -5 43 -1 6 -5 12 -10 12 -5 0 -8 6 -7 12 1 7 -1 21 -4 31 -4 9
-10 25 -14 35 -3 9 -7 19 -8 22 -2 7 -24 62 -32 80 -8 20 -10 27 -12 46 0 9
-6 12 -13 8 -7 -5 -9 0 -6 14 3 11 0 30 -8 40 -8 11 -15 28 -17 39 -1 10 -6
24 -10 30 -5 7 -10 21 -12 30 -2 10 -19 57 -38 105 -19 48 -32 89 -29 92 3 4
0 6 -7 6 -7 0 -10 4 -6 9 3 5 1 12 -5 16 -5 3 -10 17 -10 30 0 13 -4 27 -10
30 -5 3 -10 15 -10 26 0 10 -4 19 -10 19 -5 0 -10 7 -10 15 0 24 -24 95 -32
95 -5 0 -8 8 -8 18 0 10 -3 22 -7 26 -4 3 -8 15 -10 26 -1 10 -14 44 -27 74
-14 31 -22 56 -19 56 3 0 1 6 -4 13 -6 6 -16 30 -23 52 -7 22 -16 45 -20 50
-5 6 -8 12 -9 15 0 22 -27 100 -33 100 -4 0 -8 6 -8 13 0 7 -12 42 -26 78 -14
35 -27 69 -28 74 -2 10 -41 118 -53 145 -3 8 -7 18 -8 23 -2 4 -4 9 -5 12 -1
3 -3 8 -5 13 -1 4 -5 16 -10 27 -42 104 -54 139 -49 146 3 5 1 9 -4 9 -6 0
-13 12 -17 28 -3 15 -12 41 -20 57 -7 17 -27 68 -44 115 -18 47 -37 93 -42
104 -8 14 -7 17 3 11 7 -3 4 1 -7 10 -11 9 -19 18 -18 20 5 10 -10 66 -18 71
-5 3 -7 10 -4 15 4 5 2 9 -4 9 -6 0 -8 7 -5 15 4 8 1 15 -5 15 -6 0 -11 11
-11 24 0 14 -4 27 -9 30 -4 3 -14 27 -22 53 -7 27 -19 59 -26 73 -7 14 -13 31
-13 38 0 6 -5 12 -11 12 -5 0 -7 4 -4 10 3 5 -1 23 -10 39 -8 17 -17 38 -19
48 -1 10 -10 35 -20 55 -9 21 -16 41 -16 46 0 4 -16 46 -35 92 -20 47 -37 92
-38 100 -2 8 -9 25 -15 38 -7 12 -10 22 -6 22 3 0 1 7 -6 15 -7 8 -9 15 -5 15
4 0 2 6 -4 13 -6 8 -8 17 -4 20 3 4 1 7 -5 7 -7 0 -12 10 -12 23 0 12 -7 31
-15 41 -8 11 -15 26 -15 34 0 8 -6 28 -14 45 -8 18 -25 61 -37 97 -13 36 -29
75 -37 88 -8 12 -11 22 -7 22 4 0 2 7 -5 15 -7 8 -9 15 -5 15 4 0 0 11 -9 25
-9 14 -14 25 -11 25 3 0 1 9 -5 21 -6 11 -13 28 -15 37 -5 20 -78 218 -103
277 -9 22 -16 43 -14 47 1 5 -3 8 -10 8 -6 0 -9 3 -5 6 11 12 -15 65 -32 62
-9 -1 -21 0 -26 4 -6 3 -19 1 -30 -4z m-2095 -735 c0 -1 -9 -12 -20 -23 -11
-11 -20 -17 -20 -14 0 4 -7 1 -15 -6 -8 -7 -13 -16 -10 -20 3 -4 -2 -11 -10
-14 -30 -11 -67 -159 -48 -189 4 -7 9 -21 11 -32 6 -39 53 -95 105 -125 67
-38 152 -42 225 -8 53 25 58 29 92 78 29 40 30 45 37 128 3 41 1 68 -6 75 -6
6 -11 19 -11 28 0 10 -14 33 -30 51 -17 18 -26 34 -20 36 13 5 81 -63 73 -72
-4 -3 -2 -6 3 -6 11 0 30 -49 39 -100 3 -19 8 -36 10 -38 3 -3 -16 -70 -37
-124 -6 -15 -14 -25 -19 -22 -5 3 -9 1 -9 -4 0 -11 -60 -75 -60 -64 0 4 -4 2
-8 -3 -14 -19 -132 -63 -132 -49 0 3 -9 0 -20 -6 -11 -6 -20 -7 -20 -3 0 4
-10 9 -23 10 -21 2 -56 9 -67 13 -3 1 -9 2 -13 1 -4 -1 -10 6 -13 14 -4 8 -12
15 -19 15 -6 0 -22 9 -35 20 -13 11 -27 20 -32 20 -4 0 -8 7 -8 15 0 8 -4 15
-9 15 -8 0 -40 57 -49 90 -3 8 -5 47 -5 87 -1 57 3 76 17 92 11 12 17 24 13
27 -9 9 91 106 103 99 5 -3 10 -2 10 3 0 5 7 9 15 9 8 0 15 -2 15 -4z"/>
</g>
</svg>
